<svg width="42" height="42" viewBox="0 0 42 42" fill="none" xmlns="http://www.w3.org/2000/svg">
<path d="M35.6846 11.0521V17.6634C35.6846 17.6634 31.277 17.6855 31.2637 17.6634V11.0521H24.6325C24.6325 11.0521 24.6546 6.64445 24.6325 6.63123H31.2637V0H35.6846V6.63123H42.3158V11.0521H35.6846ZM29.0533 19.8959V13.2647H22.4221V6.63123H4.73662C3.56521 6.63472 2.44279 7.1016 1.61448 7.92991C0.786168 8.75822 0.319284 9.88065 0.315796 11.0521V37.5792C0.319284 38.7506 0.786168 39.873 1.61448 40.7013C2.44279 41.5296 3.56521 41.9965 4.73662 42H31.2637C32.4351 41.9965 33.5576 41.5296 34.3859 40.7013C35.2142 39.873 35.6811 38.7506 35.6846 37.5792V19.8959H29.0533ZM4.73662 37.5792L11.3678 28.7375L15.7887 35.3688L22.4199 26.5271L31.2615 37.5792H4.73662Z" fill="#A1A5B7"/>
</svg>
