<svg width="27" height="36" viewBox="0 0 27 36" fill="none" xmlns="http://www.w3.org/2000/svg">
<g clip-path="url(#clip0_353_6863)">
<path d="M8.18533 35.037C8.32523 35.0964 8.50931 35.1088 8.74248 35.0444C9.34625 34.881 9.95248 34.527 10.4704 34.1656C11.673 33.3165 12.5762 32.0886 13.0744 30.6701C13.207 30.4373 13.2806 30.1675 13.3469 29.91C13.553 29.0857 13.5972 28.2242 13.585 27.3775C13.5751 26.6868 13.5187 25.9961 13.4328 25.3104C13.3812 24.897 13.3444 24.4836 13.315 24.0701C13.2683 23.4116 13.2487 22.7581 13.2757 22.102C13.2757 22.102 13.2904 21.7579 13.2929 21.5846C13.2978 21.1539 13.3101 20.6736 13.0204 20.3221C12.6547 20.025 12.4093 20.4137 12.3921 20.4533C12.3749 20.4929 12.1099 20.7306 12.0387 22.7927C12.0387 22.7927 11.9307 26.1051 11.2901 25.2213C11.0054 24.8277 10.8557 24.3177 10.7428 23.8473C10.355 22.2308 10.2985 20.3617 10.7747 18.7897C11.1232 17.6336 11.7417 16.9627 12.7578 16.4428C13.5383 16.0443 14.3556 15.5863 14.2403 14.5416C14.2403 14.5416 14.1323 13.742 13.7052 14.6109C13.6929 14.6307 13.5653 14.9203 13.2291 15.1778C12.8928 15.4353 12.6547 15.4749 12.3455 15.5987C11.9724 15.7472 11.5822 16.074 11.5822 16.074C11.5822 16.074 11.8325 15.3387 11.9111 14.8436C11.9749 14.4624 11.8914 13.6256 11.5159 13.4053C11.5159 13.4053 11.0594 13.1552 11.1232 14.1282C11.187 15.1011 10.3869 16.6037 10.3378 16.678C10.2863 16.7523 9.64078 17.8861 9.36589 18.5669C9.00018 19.4779 8.74248 20.3345 8.64921 21.3148C8.55349 22.3026 8.61239 23.0601 8.78911 24.2731C9.00264 25.7412 9.44197 27.0656 9.65305 28.5163C9.74141 29.1401 9.7954 30.1774 9.02473 30.3557C7.84663 30.5537 7.75336 32.3436 7.72146 33.2645C7.69937 33.9304 7.68709 34.8117 8.18779 35.032" fill="#E98300"/>
<path d="M21.7728 19.0745C22.1237 19.3938 22.941 20.0251 23.9596 20.0251C24.6935 20.0251 25.4077 19.7008 26.09 19.0547C25.739 18.7353 24.9217 18.1065 23.9032 18.1065C23.1693 18.1065 22.4526 18.4308 21.7728 19.0745ZM17.0284 24.5505C17.3721 24.6569 18.047 24.8302 18.8496 24.8302C20.3713 24.8302 22.379 24.1965 23.4368 21.2282C23.0932 21.1193 22.4183 20.9485 21.6157 20.9485C20.094 20.9485 18.0863 21.5822 17.0309 24.5529M15.4797 14.9006C15.9289 15.1284 17.0039 15.6037 18.2532 15.6037C20.1161 15.6037 21.6132 14.5887 22.7054 12.5835C22.2587 12.3532 21.1862 11.8804 19.9344 11.8804C18.0691 11.8804 16.5744 12.8979 15.4797 14.9006ZM15.4748 11.3679C16.1007 10.5659 16.3609 9.50878 16.2504 8.22147C15.6957 8.32297 14.417 8.66708 13.5801 9.73653C12.9542 10.5386 12.694 11.5932 12.8045 12.883C13.3592 12.779 14.6379 12.4349 15.4748 11.3679ZM18.938 17.089C17.8703 17.089 16.8984 17.6163 16.0369 18.661C16.4345 18.9606 17.3917 19.5696 18.5354 19.5696C19.6006 19.5696 20.5775 19.0423 21.439 18.0001C21.0389 17.7005 20.0866 17.089 18.938 17.089ZM14.2035 22.9017C14.3851 22.9364 14.6354 22.9661 14.9201 22.9661C15.9682 22.9661 17.3132 22.5428 17.912 20.592C17.7279 20.5573 17.4801 20.5276 17.1953 20.5276C16.1449 20.5276 14.8023 20.951 14.2035 22.9017ZM12.2964 19.27C12.3602 19.2725 12.4314 19.275 12.5075 19.275C13.4991 19.275 15.1729 18.9185 15.573 16.5939C15.5092 16.5939 15.4405 16.589 15.3595 16.589C14.3704 16.589 12.694 16.9455 12.294 19.2676M8.59276 17.0717C8.73021 17.0717 8.87502 17.0692 9.01983 17.0593C8.90938 16.0666 8.24424 12.6454 4.3467 12.6454C4.2068 12.6454 4.06444 12.6503 3.91964 12.6577C4.03008 13.6529 4.69522 17.0717 8.59276 17.0717ZM8.12889 13.3187C8.63203 13.8633 9.34871 14.1604 10.2568 14.1975C10.2249 13.7396 10.0777 12.7815 9.4248 12.076C8.9192 11.5338 8.20497 11.2392 7.29685 11.2021C7.32876 11.6576 7.47602 12.6132 8.12889 13.3187ZM7.4073 20.5945C7.69937 20.5945 8.00862 20.5672 8.32769 20.5128C8.13625 19.7008 7.34103 17.292 4.62159 17.292C4.33197 17.292 4.02272 17.3217 3.7012 17.3762C3.89264 18.1882 4.69031 20.5945 7.40485 20.5945M3.10478 20.3469C2.68263 20.3469 2.23103 20.441 1.75733 20.6291C2.02977 21.196 2.84707 22.5477 4.45714 22.5477C4.8793 22.5477 5.32845 22.4536 5.80214 22.268C5.5248 21.7035 4.69767 20.3469 3.10478 20.3469ZM0.188987 16.683C0.289616 17.3762 0.760856 19.1735 2.92807 19.1735C2.9747 19.1735 3.02379 19.1735 3.07042 19.171C2.96979 18.463 2.48383 16.6063 0.188987 16.683ZM0.292071 12.2814C0.19635 12.2814 0.098175 12.2814 0 12.2889C0.105538 13.1454 0.672499 15.7621 3.72819 15.7621C3.82392 15.7621 3.91964 15.7596 4.01781 15.7547C3.91473 14.8981 3.34531 12.2814 0.289616 12.2814M4.64858 9.10031C4.0129 8.40714 3.10724 8.03085 1.93159 7.98381C1.95859 8.52845 2.11567 9.79842 2.96488 10.7218C3.60302 11.4175 4.51605 11.7913 5.67942 11.8358C5.65488 11.2937 5.50025 10.0287 4.64613 9.10031M7.71164 6.55045C7.02687 5.45624 5.89786 4.72346 4.3467 4.37193C4.24852 5.03044 4.0939 6.82029 5.02901 8.31802C5.71133 9.41471 6.8428 10.1475 8.39151 10.499C8.48968 9.84051 8.64185 8.05066 7.70919 6.55292M10.1145 5.10965C10.2102 4.61206 10.3427 3.43615 9.77332 2.40136C9.34871 1.62897 8.60749 1.07939 7.57174 0.767467C7.47848 1.26506 7.34349 2.44097 7.9129 3.47576C8.33751 4.25062 9.07873 4.79773 10.1169 5.10718M11.8252 8.56063C11.6804 7.62485 11.1404 6.78811 10.2151 6.07513C9.94758 6.51827 9.3708 7.65456 9.5647 8.91216C9.70951 9.85041 10.2495 10.6847 11.1723 11.3977C11.4423 10.952 12.0191 9.8207 11.8252 8.55815M13.3543 7.36492C13.7298 6.82771 14.6502 5.31018 14.4734 3.53023C14.3458 2.23054 13.6586 1.04226 12.4314 -0.00244141C12.0559 0.534762 11.138 2.0523 11.3122 3.82977C11.4398 5.12946 12.1271 6.31774 13.3543 7.36244M17.993 4.21844C18.4054 3.23316 18.3784 2.09438 17.912 0.831833C17.3991 1.08434 16.1792 1.79979 15.6245 3.12918C15.2122 4.11447 15.2392 5.25324 15.7055 6.51579C16.2161 6.26328 17.4383 5.54783 17.993 4.22092M20.575 8.43685C21.142 7.27332 21.1788 5.88947 20.6855 4.32489C20.0891 4.5675 18.5281 5.33493 17.75 6.92921C17.1831 8.09522 17.1463 9.47907 17.6371 11.0461C18.2335 10.801 19.8019 10.0311 20.5726 8.43685M23.2675 9.94448C23.913 9.23646 24.2296 8.25861 24.2124 7.03566C23.6872 7.09013 22.4551 7.31788 21.5911 8.26603C20.9456 8.97405 20.629 9.95191 20.6462 11.1749C21.1714 11.1204 22.406 10.8926 23.2699 9.94696M25.955 13.3311C25.8274 13.3187 25.658 13.3039 25.4592 13.3039C24.2517 13.3039 22.1925 13.747 21.6648 16.6459C21.7924 16.6583 21.9642 16.6707 22.163 16.6707C23.3681 16.6707 25.4273 16.23 25.9575 13.3286" fill="#008542"/>
</g>
<defs>
<clipPath id="clip0_353_6863">
<rect width="26.09" height="35.0866" fill="white"/>
</clipPath>
</defs>
</svg>
