<svg width="355" height="143" viewBox="0 0 355 143" fill="none" xmlns="http://www.w3.org/2000/svg">
<path d="M34.3501 142.528C35.081 142.794 35.8803 142.804 36.618 142.558C39.1449 141.773 41.5239 140.575 43.658 139.011C48.5798 135.523 52.2905 130.586 54.273 124.889C54.7789 123.92 55.1513 122.888 55.3801 121.819C56.1484 118.466 56.4741 115.027 56.3491 111.59C56.2952 108.797 56.0879 106.009 55.7281 103.239C55.5171 101.573 55.3671 99.9 55.2461 98.226C55.0444 95.581 54.991 92.9269 55.0861 90.276C55.0861 90.276 55.142 88.881 55.152 88.185C55.175 86.45 55.2181 84.506 54.0391 83.085C53.8494 82.9157 53.6228 82.7931 53.3773 82.727C53.1318 82.661 52.8742 82.6533 52.6252 82.7046C52.3762 82.7559 52.1427 82.8648 51.9434 83.0225C51.744 83.1803 51.5843 83.3825 51.477 83.613C51.409 83.768 50.327 84.733 50.04 93.061C50.04 93.061 49.602 106.438 46.989 102.872C45.8939 101.185 45.1366 99.3008 44.7591 97.325C43.1831 90.791 42.945 83.244 44.885 76.892C45.4448 74.8118 46.4604 72.8823 47.8583 71.2433C49.2562 69.6043 51.0013 68.2969 52.967 67.416C56.144 65.807 59.476 63.959 59.002 59.739C59.002 59.739 58.557 56.506 56.825 60.021C56.3634 60.9252 55.7012 61.7119 54.889 62.321C53.7919 63.0838 52.5752 63.6584 51.2891 64.021C50.1726 64.5231 49.1267 65.1693 48.178 65.943C48.7349 64.3194 49.1839 62.6608 49.5221 60.978C49.7781 59.437 49.441 56.058 47.908 55.164C47.908 55.164 46.048 54.156 46.308 58.084C46.568 62.012 43.3081 68.084 43.1081 68.384C41.6407 70.8479 40.32 73.3964 39.153 76.016C37.6307 79.5497 36.6449 83.291 36.2281 87.116C35.8817 91.1067 36.0748 95.1259 36.8021 99.065C37.6751 104.994 39.4641 110.34 40.3191 116.209C40.6821 118.725 40.8991 122.924 37.7551 123.635C32.9551 124.435 32.571 131.666 32.442 135.386C32.351 138.086 32.304 141.64 34.342 142.528" fill="#E98300"/>
<path d="M89.7081 78.052C91.1431 79.345 94.4711 81.888 98.6231 81.888C101.613 81.888 104.523 80.574 107.299 77.971C105.872 76.681 102.543 74.137 98.3891 74.137C95.3961 74.137 92.4821 75.452 89.7081 78.052ZM70.3831 100.17C72.7869 100.906 75.2852 101.286 77.7991 101.3C83.9991 101.3 92.1831 98.74 96.4851 86.747C94.0818 86.0055 91.5821 85.624 89.0671 85.615C82.8671 85.615 74.6831 88.173 70.3831 100.17ZM64.0671 61.184C67.5727 62.967 71.435 63.9373 75.3671 64.023C82.9561 64.023 89.0551 59.923 93.5041 51.823C90.0036 50.0313 86.1416 49.0591 82.2101 48.98C74.6101 48.98 68.5211 53.085 64.0641 61.18M64.0401 46.905C66.5941 43.669 67.6511 39.396 67.2001 34.194C64.9371 34.604 59.7271 35.994 56.3171 40.314C53.7651 43.55 52.7061 47.819 53.1571 53.027C55.4201 52.612 60.6321 51.222 64.0401 46.905ZM78.1501 70.028C73.8051 70.028 69.8351 72.161 66.3261 76.376C69.2618 78.6182 72.8179 79.8998 76.5091 80.046C80.8501 80.046 84.8271 77.919 88.3361 73.705C85.4014 71.4578 81.8434 70.1734 78.1501 70.028ZM58.8591 93.505C59.8219 93.6798 60.7985 93.7675 61.7771 93.767C66.048 93.767 71.5261 92.058 73.9661 84.178C73.0032 84.004 72.0266 83.9166 71.0481 83.917C66.7661 83.917 61.2961 85.624 58.8591 93.505ZM51.0861 78.828C51.3441 78.838 51.6321 78.849 51.9501 78.849C55.9881 78.849 62.8131 77.409 64.4421 68.023C64.1851 68.016 63.8971 68.004 63.5751 68.004C59.5401 68.004 52.7161 69.449 51.0861 78.828ZM36.0081 69.959C36.5731 69.959 37.1581 69.946 37.7481 69.908C37.2961 65.893 34.5911 52.082 18.7111 52.082C18.1451 52.082 17.5631 52.101 16.9691 52.133C17.4221 56.154 20.1291 69.959 36.0081 69.959ZM34.1171 54.799C36.1671 56.999 39.0851 58.199 42.7911 58.347C42.6337 55.1965 41.4423 52.1859 39.4011 49.781C37.3451 47.59 34.4301 46.402 30.7261 46.249C30.8828 49.3949 32.075 52.4008 34.1171 54.799ZM31.1731 84.191C32.4304 84.1851 33.6851 84.0744 34.9241 83.86C34.1431 80.58 30.8991 70.847 19.8241 70.847C18.5666 70.8552 17.3121 70.9699 16.0741 71.19C16.8561 74.466 20.1021 84.19 31.1741 84.19M13.6491 83.19C11.763 83.2235 9.89978 83.6088 8.15508 84.326C9.26408 86.617 12.5971 92.08 19.1551 92.08C21.0367 92.0464 22.8958 91.6643 24.6381 90.953C23.5131 88.673 20.1381 83.19 13.6471 83.19M1.76607 68.39C2.17807 71.19 4.09906 78.449 12.9271 78.449C13.1181 78.449 13.3121 78.441 13.5091 78.437C13.1001 75.575 11.1201 68.079 1.76607 68.39ZM2.18607 50.609C1.79407 50.609 1.39807 50.617 0.99707 50.64C1.42507 54.101 3.73608 64.671 16.1901 64.671C16.5761 64.671 16.9721 64.659 17.3711 64.64C16.9501 61.179 14.6301 50.609 2.18607 50.609ZM19.9421 37.763C17.3511 34.963 13.6611 33.446 8.87407 33.25C8.98207 35.45 9.62106 40.577 13.0881 44.31C15.6881 47.119 19.4121 48.628 24.1471 48.81C24.0471 46.618 23.4141 41.51 19.9421 37.762M32.4361 27.462C29.6491 23.038 25.0421 20.078 18.7301 18.662C18.3301 21.319 17.7031 28.562 21.5131 34.597C24.2971 39.024 28.9051 41.985 35.2131 43.406C35.6131 40.75 36.2381 33.517 32.4321 27.466M42.2321 21.633C42.6191 19.627 43.1641 14.874 40.8421 10.693C39.1091 7.56898 36.0961 5.35099 31.8681 4.09299C31.4851 6.10399 30.9361 10.856 33.2561 15.034C34.9891 18.162 38.0061 20.376 42.2321 21.628M49.1881 35.576C48.6011 31.791 46.3971 28.415 42.6311 25.538C41.5421 27.332 39.1871 31.914 39.9781 37.002C40.5661 40.792 42.7671 44.164 46.5281 47.041C47.6281 45.241 49.9761 40.669 49.1881 35.576ZM55.4161 30.752C56.9471 28.578 60.6921 22.452 59.9761 15.265C59.4601 10.014 56.6591 5.21899 51.6541 0.997986C50.1281 3.17099 46.3811 9.29799 47.0941 16.481C47.6131 21.731 50.4141 26.533 55.4161 30.752ZM74.3161 18.052C75.9911 14.07 75.8841 9.47298 73.9831 4.37198C71.8981 5.38798 66.9271 8.28199 64.6671 13.649C62.9901 17.632 63.0991 22.233 64.9951 27.327C67.0771 26.31 72.0541 23.421 74.3161 18.052ZM84.8391 35.083C87.1451 30.383 87.2951 24.789 85.2931 18.47C82.8651 19.455 76.5031 22.545 73.3311 28.989C71.0261 33.704 70.8691 39.289 72.8741 45.621C75.3031 44.634 81.6921 41.521 84.8391 35.083ZM95.8221 41.175C98.4491 38.312 99.7411 34.367 99.6711 29.425C97.5261 29.644 92.5061 30.564 88.9891 34.392C86.3581 37.253 85.0701 41.192 85.1361 46.139C87.2801 45.92 92.3051 45.002 95.8221 41.175ZM106.773 54.844C106.101 54.7748 105.426 54.7394 104.751 54.738C99.8341 54.738 91.4371 56.524 89.2901 68.238C89.8141 68.289 90.5081 68.338 91.3161 68.338C96.2271 68.338 104.621 66.554 106.773 54.838" fill="#008542"/>
<path d="M351.252 79.335H346.285C346.685 81.365 347.029 83.006 347.295 84.222L347.328 84.367C347.784 86.433 348.494 87.734 349.44 88.237C350.208 88.6745 351.06 88.9425 351.94 89.023C352.001 89.0476 352.065 89.0631 352.131 89.069C352.493 89.112 352.906 89.142 353.296 89.169L353.429 89.176L353.507 89.181C353.72 89.194 353.937 89.207 354.165 89.215V89.21C354.531 89.223 354.782 89.228 354.782 89.228C354.264 89.228 353.832 88.579 353.676 88.31C352.483 85.4369 351.669 82.421 351.254 79.338M333.483 78.63H328.332V85.372C328.258 85.983 328.308 86.6028 328.48 87.1939C328.652 87.785 328.942 88.3351 329.332 88.811H329.318C329.333 88.829 329.353 88.842 329.369 88.858H329.374C329.986 89.432 330.712 89.8711 331.504 90.1468C332.297 90.4224 333.138 90.5284 333.974 90.458H340.274C340.993 90.5508 341.724 90.4937 342.419 90.2903C343.115 90.0869 343.761 89.7415 344.317 89.276C345.044 88.5055 345.493 87.5151 345.594 86.461C345.217 87.2838 344.6 87.9736 343.824 88.4403C343.048 88.907 342.15 89.1289 341.246 89.077H337.113C336.117 89.137 335.126 88.885 334.28 88.356C334.27 88.344 334.256 88.336 334.246 88.325C333.617 87.3203 333.347 86.1319 333.481 84.954L333.483 78.63ZM339.403 85.162C340.67 85.7299 342.048 86.0096 343.436 85.981C342.516 84.501 341.89 82.112 341.53 78.711H337.159C337.352 80.153 337.532 81.342 337.688 82.251C337.712 82.8399 337.881 83.4138 338.18 83.9216C338.48 84.4295 338.9 84.8555 339.403 85.162ZM136.003 70.981H132.868V55.822H135.533C141.647 55.822 143.476 58.488 143.476 63.243C143.476 68.783 142.118 70.978 136.003 70.978M141.177 71.762V71.605C149.016 70.351 151.629 67.111 151.629 62.773C151.629 58.226 148.18 54.15 137.519 54.15H119.959V55.561C124.14 55.718 125.029 56.45 125.029 58.226V85.506C125.029 87.335 124.14 88.015 119.959 88.171V89.583H137.673V88.171C134.224 88.015 132.866 87.439 132.866 85.506V72.545H135.373C141.018 72.545 142.429 74.009 142.847 79.182L143.213 83.467C143.578 87.91 144.729 89.843 151.785 89.843C153.409 89.8349 155.032 89.7307 156.644 89.531V88.119C152.672 87.962 151.889 87.335 151.418 83.519L150.948 79.443C150.425 75.053 148.548 71.97 141.175 71.761M172.009 75.471L163.438 75.524C163.7 69.724 165.215 66.535 168.038 66.535C171.279 66.535 172.585 70.246 172.011 75.471M179.119 77.039C179.484 70.193 175.774 64.915 168.405 64.915C161.297 64.915 156.072 69.879 156.072 77.823C156.072 85.505 160.772 90.051 168.405 90.051C173.579 90.051 176.819 87.543 179.119 83.885L178.073 83.101C176.087 85.819 173.892 87.387 170.966 87.387C165.949 87.387 163.388 83.623 163.388 77.666V77.039H179.119ZM196.834 89.582H210.266V88.276C207.235 88.223 206.66 87.752 206.66 86.393V72.753C206.66 67.841 204.621 65.176 200.284 65.176C196.884 65.176 193.594 67.162 191.138 69.931V65.331L180.686 65.801V67.108C183.664 67.16 184.286 68.1 184.286 69.668V86.391C184.286 87.75 183.659 88.221 180.686 88.274V89.58H194.065V88.274C192.027 88.221 191.243 87.75 191.243 86.391V71.391C191.829 70.6694 192.56 70.0781 193.388 69.655C194.216 69.2319 195.123 68.9864 196.051 68.934C198.663 68.934 199.709 70.502 199.709 73.691V86.391C199.709 87.75 198.925 88.221 196.834 88.274V89.582ZM229.027 71.291C229.027 60.525 233.365 54.985 238.905 54.985C243.973 54.985 247.422 59.27 250.14 66.378H251.865V53.157H250.401L248.468 55.613C245.636 54.1048 242.477 53.315 239.268 53.313C228.768 53.313 220.402 61.048 220.402 72.336C220.402 83.154 226.934 90.471 238.119 90.471C246.271 90.471 250.869 85.82 253.274 80.332L251.705 79.6C249.145 84.931 245.487 87.648 240.418 87.648C234.512 87.648 229.025 82.422 229.025 71.292M266.495 56.972C266.533 56.4225 266.451 55.8715 266.256 55.3565C266.061 54.8414 265.757 54.3745 265.366 53.9876C264.974 53.6007 264.503 53.3028 263.985 53.1144C263.468 52.9261 262.916 52.8515 262.367 52.896C261.809 52.8693 261.251 52.9614 260.731 53.1661C260.211 53.3709 259.741 53.6836 259.351 54.0837C258.96 54.4838 258.66 54.9621 258.468 55.487C258.276 56.012 258.198 56.5716 258.239 57.129C258.201 57.6784 258.283 58.2295 258.478 58.7447C258.673 59.2598 258.976 59.7268 259.368 60.1137C259.76 60.5007 260.231 60.7985 260.748 60.9868C261.266 61.1752 261.818 61.2496 262.367 61.205C262.926 61.236 263.486 61.147 264.008 60.9438C264.53 60.7406 265.002 60.428 265.393 60.0269C265.785 59.6259 266.085 59.1458 266.275 58.6188C266.465 58.0919 266.54 57.5303 266.495 56.972ZM255.259 89.583H269.573V88.277C266.543 88.224 265.968 87.753 265.968 86.394V65.334L255.254 65.804V67.111C258.234 67.163 259.017 68.103 259.017 69.671V86.394C259.017 87.753 258.234 88.224 255.254 88.277L255.259 89.583ZM292.905 54.623C293.095 54.1436 293.262 53.724 293.405 53.364H287.513C284.632 61.618 282.205 66.783 280.118 69.095C281.415 69.0923 282.71 68.9742 283.986 68.742L284.741 68.578V90.468H289.885V62.281L289.915 62.154C290.615 60.467 291.615 57.947 292.903 54.623M313.65 58.644C313.65 58.264 313.01 57.517 311.73 56.396C311.074 55.6981 310.294 55.1278 309.43 54.714L306.973 58.051H293.063V58.076H293.021L293.063 58.191V59.209H312.554C313.284 59.209 313.651 59.0206 313.654 58.644M315.565 87.929C315.565 87.55 314.923 86.804 313.643 85.681C312.987 84.983 312.207 84.4124 311.343 83.998L308.889 87.337H292.048V88.497H314.461C315.196 88.497 315.561 88.309 315.561 87.93M317.18 89.502C317.18 89.502 318.739 89.475 319.826 89.346C319.874 89.3414 319.922 89.3323 319.969 89.319C320.893 89.2871 321.801 89.0691 322.638 88.678C323.601 88.199 324.216 87.131 324.488 85.491C324.795 83.751 325.088 81.71 325.354 79.417H320.12C319.905 82.528 319.293 85.5988 318.3 88.555C318.161 88.799 317.717 89.502 317.18 89.502ZM325.635 55.788C326.71 56.2253 329.079 56.47 332.741 56.522C331.687 55.6932 330.92 54.5537 330.55 53.265H323.19C323.363 53.8522 323.675 54.3887 324.101 54.8282C324.527 55.2678 325.053 55.5971 325.635 55.788ZM349.725 53.265H342.366C341.993 54.5533 341.226 55.6924 340.172 56.522C343.829 56.466 346.197 56.222 347.213 55.81C347.807 55.622 348.346 55.292 348.784 54.8485C349.222 54.4051 349.545 53.8615 349.725 53.265ZM340.625 59.232L339.946 59.785C338.546 60.925 337.484 61.852 336.796 62.54L336.704 62.631H331.019C327.819 65.046 325.65 66.711 324.559 67.58L324.447 67.668L324.307 67.641C323.517 67.492 323.13 67.126 323.154 66.557V66.552L323.079 66.514L323.098 66.206C323.498 65.206 327.798 61.892 331.323 59.293L331.406 59.232H340.625ZM324.965 75.158L324.975 75.098C325.011 74.875 325.268 74.208 326.882 72.808C327.162 72.552 327.582 72.193 328.137 71.735C328.406 71.512 328.637 71.32 328.823 71.16L329.165 70.869L329.318 71.292C329.733 72.454 330.198 73.705 330.701 75.018L330.826 75.343L330.489 75.431C329.272 75.7051 328.026 75.8297 326.779 75.802H326.558C325.591 75.777 325.058 75.58 324.979 75.217L324.965 75.158ZM330.665 69.572L331.325 69.023C332.325 68.19 333.264 67.38 334.125 66.623L334.584 66.216L334.641 66.828C334.807 68.638 336.119 69.538 338.652 69.576L339.844 69.562L339.237 70.114C338.017 71.1295 336.968 72.3342 336.13 73.682L335.801 74.296L335.563 73.641C335.282 72.865 334.918 71.741 334.486 70.303C334.392 69.98 334.318 69.739 334.263 69.578L330.665 69.572ZM342.279 75.418V75.29C342.288 74.565 343.468 73.134 345.784 71.035L346.15 70.704L346.291 71.176C346.568 72.094 346.922 73.147 347.347 74.304L347.466 74.671C347.505 74.7671 347.538 74.8652 347.566 74.965L347.656 75.265L347.356 75.382C346.279 75.6663 345.17 75.8056 344.056 75.796H343.9C343.051 75.796 342.545 75.702 342.357 75.506L342.279 75.418ZM354.835 59.211V58.047H317.228V59.211H325.488L324.252 60.038C318.341 63.995 318.035 65.694 318.179 66.238C318.279 68.027 319.208 68.844 321.21 68.95C321.631 68.934 322.083 68.909 322.516 68.87L324.544 68.683L322.965 69.971C319.123 73.1 318.705 74.563 318.798 75.157C318.752 75.4139 318.764 75.6779 318.832 75.9298C318.9 76.1818 319.023 76.4155 319.193 76.614C319.926 77.398 321.655 77.76 324.293 77.686C326.615 77.7681 328.895 77.048 330.748 75.647L331.354 75.137L331.703 75.846C331.862 76.1669 332.09 76.448 332.372 76.6685C332.654 76.8891 332.982 77.0434 333.332 77.12C334.56 77.3973 335.817 77.519 337.075 77.482L336.97 77.142L338.057 77.421C339.022 77.6041 340.004 77.6796 340.985 77.646H341.296C343.587 77.5991 345.813 76.8781 347.696 75.573L348.269 75.173L348.599 75.792C348.776 76.1355 349.025 76.4361 349.331 76.6726C349.636 76.9092 349.989 77.0759 350.366 77.161C350.726 77.2626 351.094 77.3325 351.466 77.37C351.466 77.37 351.524 77.375 351.617 77.386C351.947 77.4213 352.322 77.4496 352.741 77.471C353.158 77.495 353.66 77.517 354.241 77.528L354.46 77.534L354.431 77.493C354.204 77.3914 354.006 77.2333 353.857 77.034C353.781 76.928 353.704 76.812 353.63 76.689C352.682 74.5923 351.918 72.4175 351.345 70.189H345.745L346.981 69.102C348.106 68.107 350.246 66.302 353.346 63.748C353.414 63.689 353.483 63.632 353.546 63.575H348.506C345.579 65.765 343.357 67.486 341.899 68.693L341.699 68.857L341.441 68.83C341.018 68.8338 340.609 68.671 340.305 68.3768C340 68.0826 339.823 67.6804 339.812 67.257C339.505 66.684 339.425 65.714 347.923 59.207L354.835 59.211Z" fill="#666666"/>
</svg>
