<svg width="27" height="24" viewBox="0 0 27 24" fill="none" xmlns="http://www.w3.org/2000/svg">
<path d="M14.4324 7.96522L15.9259 9.37943L13.3122 11.8543C12.6936 12.4401 12.6936 13.3898 13.3122 13.9756C13.9309 14.5614 14.9339 14.5614 15.5525 13.9756L19.2863 10.4401C20.7298 9.07326 20.7298 6.85718 19.2863 5.49034C17.8428 4.12351 15.5025 4.12351 14.059 5.49034L6.59143 12.5614C5.14795 13.9282 5.14795 16.1443 6.59143 17.5112L6.96481 17.8647C8.20207 19.0363 10.2081 19.0363 11.4453 17.8647L12.9389 19.2789C10.8768 21.2315 7.5334 21.2315 5.47129 19.2789L5.09791 18.9254C2.82959 16.7775 2.82959 13.2951 5.09791 11.1472L12.5655 4.07613C14.8338 1.92825 18.5115 1.92825 20.7798 4.07613C23.0481 6.22402 23.0481 9.70642 20.7798 11.8543L17.046 15.3898C15.6026 16.7567 13.2622 16.7567 11.8187 15.3898C10.3752 14.023 10.3752 11.8069 11.8187 10.4401L14.4324 7.96522Z" fill="#D6D6E0"/>
</svg>
