<svg width="17" height="17" viewBox="0 0 17 17" fill="none" xmlns="http://www.w3.org/2000/svg">
<g clip-path="url(#clip0_233_20401)">
<path d="M16.3359 11.6875C16.7027 11.6875 17 11.3902 17 11.0234V3.98438C17 2.51972 15.8084 1.32812 14.3438 1.32812H13.4805V0.664062C13.4805 0.297301 13.1832 0 12.8164 0C12.4496 0 12.1523 0.297301 12.1523 0.664062V1.32812H9.13086V0.664062C9.13086 0.297301 8.83356 0 8.4668 0C8.10003 0 7.80273 0.297301 7.80273 0.664062V1.32812H4.81445V0.664062C4.81445 0.297301 4.51715 0 4.15039 0C3.78363 0 3.48633 0.297301 3.48633 0.664062V1.32812H2.65625C1.19159 1.32812 0 2.51972 0 3.98438V14.3438C0 15.8084 1.19159 17 2.65625 17H14.3438C15.8084 17 17 15.8084 17 14.3438C17 13.977 16.7027 13.6797 16.3359 13.6797C15.9692 13.6797 15.6719 13.977 15.6719 14.3438C15.6719 15.0761 15.0761 15.6719 14.3438 15.6719H2.65625C1.92392 15.6719 1.32812 15.0761 1.32812 14.3438V3.98438C1.32812 3.25205 1.92392 2.65625 2.65625 2.65625H3.48633V3.32031C3.48633 3.68707 3.78363 3.98438 4.15039 3.98438C4.51715 3.98438 4.81445 3.68707 4.81445 3.32031V2.65625H7.80273V3.32031C7.80273 3.68707 8.10003 3.98438 8.4668 3.98438C8.83356 3.98438 9.13086 3.68707 9.13086 3.32031V2.65625H12.1523V3.32031C12.1523 3.68707 12.4496 3.98438 12.8164 3.98438C13.1832 3.98438 13.4805 3.68707 13.4805 3.32031V2.65625H14.3438C15.0761 2.65625 15.6719 3.25205 15.6719 3.98438V11.0234C15.6719 11.3902 15.9692 11.6875 16.3359 11.6875Z" fill="#A1A5B7"/>
<path d="M8.4668 12.9805C8.83356 12.9805 9.13086 12.6832 9.13086 12.3164V10.4902H10.957C11.3238 10.4902 11.6211 10.1929 11.6211 9.82617C11.6211 9.45941 11.3238 9.16211 10.957 9.16211H9.13086V7.33594C9.13086 6.96918 8.83356 6.67188 8.4668 6.67188C8.10004 6.67188 7.80273 6.96918 7.80273 7.33594V9.16211H5.97656C5.6098 9.16211 5.3125 9.45941 5.3125 9.82617C5.3125 10.1929 5.6098 10.4902 5.97656 10.4902H7.80273V12.3164C7.80273 12.6832 8.10004 12.9805 8.4668 12.9805Z" fill="#A1A5B7"/>
</g>
<defs>
<clipPath id="clip0_233_20401">
<rect width="17" height="17" fill="white"/>
</clipPath>
</defs>
</svg>
