<svg width="16" height="16" viewBox="0 0 16 16" fill="none" xmlns="http://www.w3.org/2000/svg">
<path opacity="0.3" fill-rule="evenodd" clip-rule="evenodd" d="M3.99998 1.33398H12C12.3682 1.33398 12.6666 1.63246 12.6666 2.00065V8.00065C12.6666 8.36884 12.3682 8.66732 12 8.66732H3.99998C3.63179 8.66732 3.33331 8.36884 3.33331 8.00065V2.00065C3.33331 1.63246 3.63179 1.33398 3.99998 1.33398ZM4.99998 3.33398C4.81589 3.33398 4.66665 3.48322 4.66665 3.66732C4.66665 3.85141 4.81589 4.00065 4.99998 4.00065H8.99998C9.18408 4.00065 9.33331 3.85141 9.33331 3.66732C9.33331 3.48322 9.18408 3.33398 8.99998 3.33398H4.99998ZM4.99998 4.66732C4.81589 4.66732 4.66665 4.81656 4.66665 5.00065C4.66665 5.18475 4.81589 5.33399 4.99998 5.33399H6.99998C7.18408 5.33399 7.33331 5.18475 7.33331 5.00065C7.33331 4.81656 7.18408 4.66732 6.99998 4.66732H4.99998Z" fill="#A1A5B7"/>
<path fill-rule="evenodd" clip-rule="evenodd" d="M2.5285 4.38149L8 8.33313L13.4715 4.38149C13.6207 4.2737 13.8291 4.30731 13.9369 4.45655C13.9779 4.51336 14 4.58165 14 4.65172V11.3331C14 12.0695 13.403 12.6665 12.6667 12.6665H3.33333C2.59695 12.6665 2 12.0695 2 11.3331V4.65172C2 4.46762 2.14924 4.31838 2.33333 4.31838C2.4034 4.31838 2.47169 4.34047 2.5285 4.38149Z" fill="#A1A5B7"/>
</svg>
